<svg xmlns="http://www.w3.org/2000/svg" version="1.1" xmlns:xlink="http://www.w3.org/1999/xlink" xmlns:svgjs="http://svgjs.com/svgjs" width="100%" height="100%" viewBox="0 0 1000 600"><rect width="1000" height="600" x="0" y="0" fill="#40a8c4"/><g><rect width="333.3333333333333" height="333.3333333333333" y="147.56252629424398" fill=" #07689F" transform="matrix(0.9972850803042633,0,0,0.9972850803042632,0,-13.376075100038861)" x="125.34031677246094"/><path d="M234.91060394499328 375.3820894073616L234.91060394499328 375.3820894073616Q237.99112446268137 355.4044563471072 238.20462588469934 309.2881491912223Q238.41812730671734 263.17184203533736 235.58160841419266 241.88270023982966L235.58160841419266 241.88270023982966Q248.75769617301694 239.22918256617757 267.75932273261765 239.22918256617757Q286.730449089073 239.22918256617757 300.3640398950786 242.98070755306503Q313.96713049793885 246.70173233680708 325.28270586489214 254.93678718607222Q336.59828123184536 263.17184203533736 342.85082287665773 278.1169415765964Q349.1033645214702 293.03154091471 349.1033645214702 313.8936798661817L349.1033645214702 313.8936798661817Q349.1033645214702 346.83389926324236 331.5352475097045 368.03154044931375Q313.96713049793885 389.2291816353852 282.7959228833129 389.2291816353852Q251.5942150655416 389.2291816353852 234.91060394499328 375.3820894073616ZM254.0342313171757 253.50327763823717L254.0342313171757 253.50327763823717Q254.88823700524765 268.66187860151416 254.88823700524765 303.3711097810095Q254.88823700524765 338.0498407573595 251.838216690705 367.9400398398775L251.838216690705 367.9400398398775Q263.6722955111305 375.839592454543 279.2883995215889 375.839592454543Q294.87400332890184 375.839592454543 304.96957057003806 370.5630573103842Q315.06513781117417 365.2865221662254 320.555174377351 356.2889622383246L320.555174377351 356.2889622383246Q330.65074161848713 339.60535111777625 330.65074161848713 318.2857091191231L330.65074161848713 318.2857091191231Q330.65074161848713 285.5894913472259 314.4246335451203 269.1193816486956Q298.1680252686079 252.64927195016523 268.0643247640719 252.64927195016523L268.0643247640719 252.64927195016523Q263.24529266709453 252.64927195016523 254.0342313171757 253.50327763823717Z " fill="#ffc93c" transform="matrix(0.9972850803042633,0,0,0.9972850803042632,0,-13.376075100038861)"/><path d="M542.0069860861065 339.8755101072421L542.0069860861065 339.8755101072421Q544.2841543226878 325.10773589971063 544.4419778638369 291.01785101148533Q544.599801404986 256.92796612326003 542.5030029297183 241.19070444866924L542.5030029297183 241.19070444866924Q552.2429700406398 239.22918329438644 566.2892652029177 239.22918329438644Q580.3130141450316 239.22918329438644 590.3911745584157 242.0023683745794Q600.4467887516356 244.75300723460816 608.8114364325427 250.8404866789341Q617.1760841134499 256.92796612326003 621.7980592471047 267.9756140037034Q626.4200343807596 279.00071566398265 626.4200343807596 294.422330256275L626.4200343807596 294.422330256275Q626.4200343807596 318.7722480335788 613.4334115661976 334.44187104767707Q600.4467887516356 350.1114940617754 577.4045517438537 350.1114940617754Q554.3397685159076 350.1114940617754 542.0069860861065 339.8755101072421ZM556.1434661290411 249.7808143312181L556.1434661290411 249.7808143312181Q556.774760293638 260.98628575281066 556.774760293638 286.64388429963634Q556.774760293638 312.2789366262978 554.5201382772209 334.3742323871846L554.5201382772209 334.3742323871846Q563.268071700919 340.21370340970464 574.8117364249741 340.21370340970464Q586.3328549288651 340.21370340970464 593.7956538032054 336.3132073213032Q601.2584526775457 332.41271123290176 605.3167723070964 325.7615762844716L605.3167723070964 325.7615762844716Q612.7795711814367 313.4287938546705 612.7795711814367 297.6689859599155L612.7795711814367 297.6689859599155Q612.7795711814367 273.4994379439251 600.7849820540981 261.32447905527323Q588.7678467065955 249.14952016662133 566.5147274045595 249.14952016662133L566.5147274045595 249.14952016662133Q562.9524246186206 249.14952016662133 556.1434661290411 249.7808143312181ZM698.0042834019999 297.8493557212289L698.0042834019999 297.8493557212289L697.6886363197015 319.7642817208023Q697.6886363197015 338.4325520167352 700.7774684821928 347.676502284045L700.7774684821928 347.676502284045Q698.1846531633133 348.9841830535668 694.5321654967178 348.9841830535668Q690.8796778301222 348.9841830535668 689.4141735194511 347.27067032108994Q687.94866920878 345.557157588613 687.4526523651683 341.8370312615249L687.4526523651683 341.8370312615249Q677.3970381719483 350.1114940617754 666.6875835939676 350.1114940617754L666.6875835939676 350.1114940617754Q641.6838254319028 350.1114940617754 641.6838254319028 327.22708059514264L641.6838254319028 327.22708059514264Q641.6838254319028 318.95261779489215 645.5843215203042 315.05212170649077Q649.4848176087057 311.15162561808927 656.2937760982851 309.21265068397065L656.2937760982851 309.21265068397065Q668.468734986937 305.96599498033015 687.13700528287 304.8161377519575L687.13700528287 304.8161377519575Q687.13700528287 291.01785101148533 683.7325260380802 285.7420354930695Q680.3280467932905 280.4662199746537 669.2803989128471 280.4662199746537L669.2803989128471 280.4662199746537Q664.7260624396847 280.4662199746537 659.856078884224 283.39722859599584Q654.9860953287632 286.30569099717377 652.5511035510328 291.82951493739546L652.5511035510328 291.82951493739546Q645.0883046766925 290.3640106267244 645.0883046766925 285.33620353011446L645.0883046766925 285.33620353011446Q645.0883046766925 279.00071566398265 652.8892968534955 275.1904044562379Q660.6677428101341 271.3800932484931 672.8427016987861 271.3800932484931Q685.017660587438 271.3800932484931 691.510971994719 277.15192561052066Q698.0042834019999 282.9012117523841 698.0042834019999 297.8493557212289ZM686.9791817417207 313.09060055220795L686.9791817417207 313.09060055220795Q682.2670217274091 313.58661739581964 679.9222148303355 313.902264478118Q677.5548617130976 314.24045778058064 673.5867269642036 314.71392840402814Q669.5960459951456 315.2099452476399 667.6570710610268 315.70596209125165Q665.7180961269082 316.17943271469926 662.8772723862228 316.9910966406094Q660.0364486455373 317.8027605665195 658.6385829953588 318.7722480335788Q657.2632635653445 319.7642817208023 655.7977592546733 320.8915927290108L655.7977592546733 320.8915927290108Q653.0471203946446 323.168760965592 653.0471203946446 327.22708059514264L653.0471203946446 327.22708059514264Q653.0471203946446 334.53205592833376 657.2632635653445 338.02672005378014Q661.4794067360442 341.49883795906237 667.9727181433252 341.49883795906237L667.9727181433252 341.49883795906237Q679.0203660237686 341.49883795906237 686.6409884392582 334.1938626258712L686.6409884392582 334.1938626258712Q686.483164898109 331.93924060945415 686.483164898109 325.91939982562076Q686.483164898109 319.9221052619515 686.9791817417207 313.09060055220795ZM721.2268901710952 339.7176865660929L721.2268901710952 339.7176865660929L721.5425372533936 310.9938020769401Q721.5425372533936 287.77119530784483 720.4152262451851 273.0034211003134L720.4152262451851 273.0034211003134Q723.0080415640647 272.50740425670165 725.9390501854067 272.50740425670165L725.9390501854067 272.50740425670165Q733.5596726008963 272.50740425670165 733.5596726008963 278.6850685816843L733.5596726008963 278.6850685816843Q733.5596726008963 279.4967325075944 733.2440255185979 285.1783799889653L733.2440255185979 285.1783799889653Q732.2745380515386 302.53896951537627 732.2745380515386 319.989743922444Q732.2745380515386 337.44051832951175 735.3408239938657 347.676502284045L735.3408239938657 347.676502284045Q732.4323615926877 348.9841830535668 728.4416806236296 348.9841830535668Q724.4735458747357 348.9841830535668 722.8502180229154 346.8648383581349Q721.2268901710952 344.74549366270287 721.2268901710952 339.7176865660929ZM735.0251769115673 255.2369996109473Q735.0251769115673 258.8894872775428 732.4323615926877 261.3921177157657Q729.8395462738082 263.9172943741528 726.502705689511 263.9172943741528Q723.1658651052138 263.9172943741528 720.7308733274834 261.4823025964224Q718.2958815497531 259.04731081869204 718.2958815497531 255.30463827143979Q718.2958815497531 251.58451194435173 720.9112430887968 249.05933528596464Q723.5040584076763 246.5341586275776 726.8183527718094 246.5341586275776Q730.1551933561066 246.5341586275776 732.5901851338369 249.05933528596464Q735.0251769115673 251.58451194435173 735.0251769115673 255.2369996109473ZM794.592290585305 291.01785101148533L794.592290585305 291.01785101148533Q792.8111391923354 286.30569099717377 787.2873152521138 283.39722859599584Q781.7860375320562 280.4662199746537 776.0142051700287 280.4662199746537Q770.2423728080012 280.4662199746537 766.1840531784505 283.46486725648833Q762.1257335488999 286.48606075848716 762.1257335488999 291.6716913962463Q762.1257335488999 296.8573220340054 766.4320616002564 299.63050711419834Q770.7383896516129 302.3811459742271 776.9160539765955 303.84665028489815Q783.071172081414 305.3121545955692 789.2488364063967 307.18349086919534Q795.403954511215 309.0322809226573 799.7102825625716 313.902264478118Q804.016610613928 318.7722480335788 804.016610613928 326.5732402103817L804.016610613928 326.5732402103817Q804.016610613928 338.09435871427263 795.7421478136777 344.1141994981061Q787.4676850134272 350.1114940617754 776.8258690959389 350.1114940617754Q766.1840531784505 350.1114940617754 758.4732458823044 346.3688215145231Q750.7624385861582 342.648695187435 750.7624385861582 337.1248712472133L750.7624385861582 337.1248712472133Q750.7624385861582 332.41271123290176 758.0674139193493 330.31591275763395L758.0674139193493 330.31591275763395Q759.8711115324828 335.50154339539307 765.7782212154955 338.25218225542187Q771.7078771186722 341.02536733561476 778.697205369565 341.02536733561476Q785.6639874002935 341.02536733561476 789.97031545165 337.93653517312345Q794.2766435030065 334.84770301063213 794.2766435030065 329.16605552926126Q794.2766435030065 323.4844080478904 789.97031545165 320.8915927290108Q785.6639874002935 318.29877741013127 779.508869295475 316.92345798011684Q773.3312049704924 315.5255923299383 767.176086865674 313.67680227647634Q760.9984225406914 311.80546600285027 756.6920944893349 306.5972891449269Q752.3857664379783 301.4116585071678 752.3857664379783 292.3931704414997Q752.3857664379783 283.39722859599584 760.7504141188855 277.3773878121624Q769.1150617997927 271.3800932484931 778.2011885259533 271.3800932484931Q787.2873152521138 271.3800932484931 794.592290585305 274.78457249328284Q801.897265918496 278.1890517380725 801.897265918496 283.7128756782942Q801.897265918496 289.2366996185159 794.592290585305 291.01785101148533ZM871.7003635467669 271.3800932484931L871.7003635467669 271.3800932484931Q877.3820110281378 271.3800932484931 877.3820110281378 278.4370601598784Q877.3820110281378 285.49402707126364 871.6327248862743 303.75646540424145Q865.8608925242469 322.0189037372193 857.9020768062948 338.90602264018275L857.9020768062948 338.90602264018275Q843.630319442375 369.27578120132 830.9593437101114 385.01304287591074L830.9593437101114 385.01304287591074Q827.7126880064709 389.2291860466106 824.6238558439796 389.2291860466106L824.6238558439796 389.2291860466106Q820.0920655909814 389.2291860466106 815.6955526589683 382.7358746393296L815.6955526589683 382.7358746393296Q820.565536214429 379.64704247683824 828.6821754735303 370.1550837877226Q836.7988147326315 360.663125098607 842.8186555164649 351.0809815288347L842.8186555164649 351.0809815288347Q837.137008035094 332.2548876917526 827.3970409241725 308.15297833625465Q817.657073813251 284.0510689807568 810.6677455623583 277.3773878121624L810.6677455623583 277.3773878121624Q816.3493930437292 272.1917571744032 820.0018807103248 272.1917571744032Q823.6543683769203 272.1917571744032 826.2471836957999 277.3773878121624L826.2471836957999 277.3773878121624Q830.1476797842014 285.1783799889653 837.790848419855 304.5681293301516Q845.4114708353445 323.98042489150214 849.1541433825968 336.80922416491495L849.1541433825968 336.80922416491495Q856.1209254133254 321.70325665492095 861.3967409317412 304.3426671285099Q866.672556450157 286.9595313819347 866.672556450157 276.9039171887148L866.672556450157 276.9039171887148Q866.672556450157 276.09225326280466 866.3569093678585 272.1917571744032L866.3569093678585 272.1917571744032Q868.791901145589 271.3800932484931 871.7003635467669 271.3800932484931Z " fill="#ffc93c" transform="matrix(0.9972850803042633,0,0,0.9972850803042632,0,-13.376075100038861)"/></g></svg>